{"title":"Scouting For Girls - Scouting For Girls","uid":4869706,"size":325505884,"categoryP":"audio","categoryS":"flac","magnet":"?xt=urn:btih:b2d2e8a927576dacc3b243d02c6a0840087104e3&amp;dn=Scouting+For+Girls+-+Scouting+For+Girls&amp;tr=udp%3A%2F%2Ftracker.openbittorrent.com%3A80&amp;tr=udp%3A%2F%2Fopen.demonii.com%3A1337&amp;tr=udp%3A%2F%2Ftracker.coppersurfer.tk%3A6969&amp;tr=udp%3A%2F%2Fexodus.desync.com%3A6969","seeders":1,"leechers":0,"uploader":"sowingmyseed","files":12,"time":1240737182,"description":"Exact Audio Copy V0.99 prebeta 3 from 28. July 2007\n\nEAC extraction logfile from 15. June 2008, 18:48\n\nScouting For Girls / Scouting For Girls\n\nUsed drive  : LITE-ON DVDRW SHM-165H6S   Adapter: 0  ID: 1\n\nRead mode               : Secure\nUtilize accurate stream : Yes\nDefeat audio cache      : Yes\nMake use of C2 pointers : Yes\n\nRead offset correction                      : 6\nOverread into Lead-In and Lead-Out          : No\nFill up missing offset samples with silence : Yes\nDelete leading and trailing silent blocks   : No\nNull samples used in CRC calculations       : No\nUsed interface                              : Native Win32 interface for Win NT &amp; 2000\nGap handling                                : Not detected, thus appended to previous track\n\nUsed output format : Internal WAV Routines\nSample format      : 44.100 Hz; 16 Bit; Stereo\n\n\nTOC of the extracted CD\n\n     Track |   Start  |  Length  | Start sector | End sector \n    ---------------------------------------------------------\n        1  |  0:00.28 |  3:37.68 |        28    |    16370   \n        2  |  3:38.21 |  3:43.61 |     16371    |    33156   \n        3  |  7:22.07 |  4:12.23 |     33157    |    52079   \n        4  | 11:34.30 |  4:20.45 |     52080    |    71624   \n        5  | 15:55.00 |  2:55.68 |     71625    |    84817   \n        6  | 18:50.68 |  3:49.67 |     84818    |   102059   \n        7  | 22:40.60 |  3:24.72 |    102060    |   117431   \n        8  | 26:05.57 |  3:21.39 |    117432    |   132545   \n        9  | 29:27.21 |  3:21.10 |    132546    |   147630   \n       10  | 32:48.31 |  6:59.40 |    147631    |   179095   \n\n\nTrack  1\n\n     Filename E:MusicScouting For GirlsScouting For GirlsScouting For Girls - Scouting For Girls - 01. Keep On Walking.wav\n\n     Peak level 100.0 %\n     Track quality 100.0 %\n     Copy CRC 148E3623\n     Accurately ripped (confidence 7)  [C9E06A1F]\n     Copy OK\n\nTrack  2\n\n     Filename E:MusicScouting For GirlsScouting For GirlsScouting For Girls - Scouting For Girls - 02. She's So Lovely.wav\n\n     Peak level 100.0 %\n     Track quality 100.0 %\n     Copy CRC C45A0392\n     Accurately ripped (confidence 7)  [C3C593D4]\n     Copy OK\n\nTrack  3\n\n     Filename E:MusicScouting For GirlsScouting For GirlsScouting For Girls - Scouting For Girls - 03. It's Not About You.wav\n\n     Peak level 100.0 %\n     Track quality 100.0 %\n     Copy CRC D8D490A7\n     Accurately ripped (confidence 7)  [834B9862]\n     Copy OK\n\nTrack  4\n\n     Filename E:MusicScouting For GirlsScouting For GirlsScouting For Girls - Scouting For Girls - 04. The Airplane Song.wav\n\n     Peak level 100.0 %\n     Track quality 100.0 %\n     Copy CRC 863BF453\n     Accurately ripped (confidence 7)  [6EECDC6D]\n     Copy OK\n\nTrack  5\n\n     Filename E:MusicScouting For GirlsScouting For GirlsScouting For Girls - Scouting For Girls - 05. Heartbeat.wav\n\n     Peak level 100.0 %\n     Track quality 100.0 %\n     Copy CRC 27D70676\n     Accurately ripped (confidence 7)  [2C807B16]\n     Copy OK\n\nTrack  6\n\n     Filename E:MusicScouting For GirlsScouting For GirlsScouting For Girls - Scouting For Girls - 06. Elvis Ain't Dead.wav\n\n     Peak level 100.0 %\n     Track quality 100.0 %\n     Copy CRC C13718A3\n     Accurately ripped (confidence 7)  [20F8E125]\n     Copy OK\n\nTrack  7\n\n     Filename E:MusicScouting For GirlsScouting For GirlsScouting For Girls - Scouting For Girls - 07. I'm Not Over You.wav\n\n     Peak level 100.0 %\n     Track quality 99.8 %\n     Copy CRC 8709EC28\n     Accurately ripped (confidence 7)  [B3F8ABE1]\n     Copy OK\n\nTrack  8\n\n     Filename E:MusicScouting For GirlsScouting For GirlsScouting For Girls - Scouting For Girls - 08. I Need A Holiday.wav\n\n     Peak level 100.0 %\n     Track quality 100.0 %\n     Copy CRC 2FD4E117\n     Accurately ripped (confidence 7)  [95CE5F44]\n     Copy OK\n\nTrack  9\n\n     Filename E:MusicScouting For GirlsScouting For GirlsScouting For Girls - Scouting For Girls - 09. The Mountains Of Navaho.wav\n\n     Peak level 100.0 %\n     Track quality 99.8 %\n     Copy CRC 3541D9D5\n     Accurately ripped (confidence 7)  [E0D03D09]\n     Copy OK\n\nTrack 10\n\n     Filename E:MusicScouting For GirlsScouting For GirlsScouting For Girls - Scouting For Girls - 10. James Bond.wav\n\n     Peak level 100.0 %\n     Track quality 100.0 %\n     Copy CRC 6FA107D2\n     Accurately ripped (confidence 7)  [645C8776]\n     Copy OK\n\n\nAll tracks accurately ripped\n\nNo errors occurred\n\nEnd of status report\n","torrent":{"xt":"urn:btih:b2d2e8a927576dacc3b243d02c6a0840087104e3","amp;dn":"Scouting+For+Girls+-+Scouting+For+Girls","amp;tr":["udp%3A%2F%2Ftracker.openbittorrent.com%3A80","udp%3A%2F%2Fopen.demonii.com%3A1337","udp%3A%2F%2Ftracker.coppersurfer.tk%3A6969","udp%3A%2F%2Fexodus.desync.com%3A6969"],"infoHash":"b2d2e8a927576dacc3b243d02c6a0840087104e3","infoHashBuffer":{"type":"Buffer","data":[178,210,232,169,39,87,109,172,195,178,67,208,44,106,8,64,8,113,4,227]},"announce":[],"urlList":[]}}